<?xml version="1.0" encoding="UTF-8" standalone="no"?>
<!DOCTYPE svg PUBLIC "-//W3C//DTD SVG 1.0//EN"
 "http://www.w3.org/TR/2001/REC-SVG-20010904/DTD/svg10.dtd" [
 <!ATTLIST svg xmlns:xlink CDATA #FIXED "http://www.w3.org/1999/xlink">
]>
<!-- Generated by Graphviz version 2.20.2 (Mon Aug &#160;4 08:59:22 UTC 2008)
     For user: (harryc) Harry Clifford -->
<!-- Title: Differential Expression Pipeline by Harry Clifford Pages: 1 -->
<svg width="840pt" height="822pt"
 viewBox="0.00 0.00 840.00 822.00" xmlns="http://www.w3.org/2000/svg" xmlns:xlink="http://www.w3.org/1999/xlink">
<g id="graph0" class="graph" transform="scale(1 1) rotate(0) translate(4 818)">
<title>Differential Expression Pipeline by Harry Clifford</title>
<polygon style="fill:white;stroke:white;" points="-4,4 -4,-818 836,-818 836,4 -4,4"/>
<g id="cluster2" class="cluster"><title>clustertasks</title>
<polygon style="fill:none;stroke:black;" points="8,-16 8,-798 646,-798 646,-16 8,-16"/>
<text text-anchor="middle" x="327" y="-766.892" style="font-family:Times New Roman;font-size:30.0px;fill:#ff3232;">Differential Expression Pipeline by Harry Clifford</text>
</g>
<g id="cluster3" class="cluster"><title>clusterkey1</title>
<polygon style="fill:#f6f4f4;stroke:#f6f4f4;" points="654,-622 654,-806 824,-806 824,-622 654,-622"/>
<text text-anchor="middle" x="739" y="-774.892" style="font-family:Times New Roman;font-size:30.0px;">Key:</text>
</g>
<!-- t0 -->
<g id="node2" class="node"><title>t0</title>
<polygon style="fill:#6cb924;stroke:black;" points="172,-748 106,-748 102,-744 102,-712 168,-712 172,-716 172,-748"/>
<polyline style="fill:none;stroke:black;" points="168,-744 102,-744 "/>
<polyline style="fill:none;stroke:black;" points="168,-744 168,-712 "/>
<polyline style="fill:none;stroke:black;" points="168,-744 172,-748 "/>
<text text-anchor="middle" x="137" y="-723.392" style="font-family:Times New Roman;font-size:20.0px;">bowtie</text>
</g>
<!-- t1 -->
<g id="node3" class="node"><title>t1</title>
<polygon style="fill:#6cb924;stroke:black;" points="219,-674 59,-674 55,-670 55,-638 215,-638 219,-642 219,-674"/>
<polyline style="fill:none;stroke:black;" points="215,-670 55,-670 "/>
<polyline style="fill:none;stroke:black;" points="215,-670 215,-638 "/>
<polyline style="fill:none;stroke:black;" points="215,-670 219,-674 "/>
<text text-anchor="middle" x="137" y="-649.392" style="font-family:Times New Roman;font-size:20.0px;">sequence_removal</text>
</g>
<!-- t0&#45;&gt;t1 -->
<g id="edge3" class="edge"><title>t0&#45;&gt;t1</title>
<path style="fill:none;stroke:gray;" d="M137,-712C137,-703 137,-694 137,-684"/>
<polygon style="fill:gray;stroke:gray;" points="140.5,-684 137,-674 133.5,-684 140.5,-684"/>
</g>
<!-- t2 -->
<g id="node5" class="node"><title>t2</title>
<polygon style="fill:#6cb924;stroke:black;" points="167,-608 111,-608 107,-604 107,-572 163,-572 167,-576 167,-608"/>
<polyline style="fill:none;stroke:black;" points="163,-604 107,-604 "/>
<polyline style="fill:none;stroke:black;" points="163,-604 163,-572 "/>
<polyline style="fill:none;stroke:black;" points="163,-604 167,-608 "/>
<text text-anchor="middle" x="137" y="-583.392" style="font-family:Times New Roman;font-size:20.0px;">gmap</text>
</g>
<!-- t1&#45;&gt;t2 -->
<g id="edge5" class="edge"><title>t1&#45;&gt;t2</title>
<path style="fill:none;stroke:gray;" d="M137,-638C137,-632 137,-625 137,-618"/>
<polygon style="fill:gray;stroke:gray;" points="140.5,-618 137,-608 133.5,-618 140.5,-618"/>
</g>
<!-- t7 -->
<g id="node7" class="node"><title>t7</title>
<polygon style="fill:#6cb924;stroke:black;" points="168,-550 110,-550 106,-546 106,-514 164,-514 168,-518 168,-550"/>
<polyline style="fill:none;stroke:black;" points="164,-546 106,-546 "/>
<polyline style="fill:none;stroke:black;" points="164,-546 164,-514 "/>
<polyline style="fill:none;stroke:black;" points="164,-546 168,-550 "/>
<text text-anchor="middle" x="137" y="-525.392" style="font-family:Times New Roman;font-size:20.0px;">gsnap</text>
</g>
<!-- t2&#45;&gt;t7 -->
<g id="edge7" class="edge"><title>t2&#45;&gt;t7</title>
<path style="fill:none;stroke:gray;" d="M137,-572C137,-568 137,-564 137,-560"/>
<polygon style="fill:gray;stroke:gray;" points="140.5,-560 137,-550 133.5,-560 140.5,-560"/>
</g>
<!-- t8 -->
<g id="node9" class="node"><title>t8</title>
<polygon style="fill:#6cb924;stroke:black;" points="177,-492 39,-492 35,-488 35,-456 173,-456 177,-460 177,-492"/>
<polyline style="fill:none;stroke:black;" points="173,-488 35,-488 "/>
<polyline style="fill:none;stroke:black;" points="173,-488 173,-456 "/>
<polyline style="fill:none;stroke:black;" points="173,-488 177,-492 "/>
<text text-anchor="middle" x="106" y="-467.392" style="font-family:Times New Roman;font-size:20.0px;">alignment_stats</text>
</g>
<!-- t7&#45;&gt;t8 -->
<g id="edge9" class="edge"><title>t7&#45;&gt;t8</title>
<path style="fill:none;stroke:gray;" d="M127,-514C125,-510 122,-506 120,-501"/>
<polygon style="fill:gray;stroke:gray;" points="123.26,-499.717 116,-492 116.863,-502.56 123.26,-499.717"/>
</g>
<!-- t9 -->
<g id="node11" class="node"><title>t9</title>
<polygon style="fill:#6cb924;stroke:black;" points="246,-434 84,-434 80,-430 80,-398 242,-398 246,-402 246,-434"/>
<polyline style="fill:none;stroke:black;" points="242,-430 80,-430 "/>
<polyline style="fill:none;stroke:black;" points="242,-430 242,-398 "/>
<polyline style="fill:none;stroke:black;" points="242,-430 246,-434 "/>
<text text-anchor="middle" x="163" y="-409.392" style="font-family:Times New Roman;font-size:20.0px;">duplicate_removal</text>
</g>
<!-- t7&#45;&gt;t9 -->
<g id="edge23" class="edge"><title>t7&#45;&gt;t9</title>
<path style="fill:none;stroke:gray;" d="M168,-514C175,-508 182,-500 186,-492 193,-476 189,-458 181,-443"/>
<polygon style="fill:gray;stroke:gray;" points="183.916,-441.042 176,-434 177.797,-444.441 183.916,-441.042"/>
</g>
<!-- t8&#45;&gt;t9 -->
<g id="edge11" class="edge"><title>t8&#45;&gt;t9</title>
<path style="fill:none;stroke:gray;" d="M124,-456C128,-451 133,-446 138,-441"/>
<polygon style="fill:gray;stroke:gray;" points="140.404,-443.546 145,-434 135.454,-438.596 140.404,-443.546"/>
</g>
<!-- t10 -->
<g id="node13" class="node"><title>t10</title>
<polygon style="fill:#6cb924;stroke:black;" points="237,-376 23,-376 19,-372 19,-340 233,-340 237,-344 237,-376"/>
<polyline style="fill:none;stroke:black;" points="233,-372 19,-372 "/>
<polyline style="fill:none;stroke:black;" points="233,-372 233,-340 "/>
<polyline style="fill:none;stroke:black;" points="233,-372 237,-376 "/>
<text text-anchor="middle" x="128" y="-351.392" style="font-family:Times New Roman;font-size:20.0px;">updated_alignment_stats</text>
</g>
<!-- t9&#45;&gt;t10 -->
<g id="edge13" class="edge"><title>t9&#45;&gt;t10</title>
<path style="fill:none;stroke:gray;" d="M152,-398C150,-394 147,-389 144,-385"/>
<polygon style="fill:gray;stroke:gray;" points="146.916,-383.042 139,-376 140.797,-386.441 146.916,-383.042"/>
</g>
<!-- t11 -->
<g id="node15" class="node"><title>t11</title>
<polygon style="fill:#6cb924;stroke:black;" points="186,-318 76,-318 72,-314 72,-282 182,-282 186,-286 186,-318"/>
<polyline style="fill:none;stroke:black;" points="182,-314 72,-314 "/>
<polyline style="fill:none;stroke:black;" points="182,-314 182,-282 "/>
<polyline style="fill:none;stroke:black;" points="182,-314 186,-318 "/>
<text text-anchor="middle" x="129" y="-293.392" style="font-family:Times New Roman;font-size:20.0px;">htseq_count</text>
</g>
<!-- t9&#45;&gt;t11 -->
<g id="edge25" class="edge"><title>t9&#45;&gt;t11</title>
<path style="fill:none;stroke:gray;" d="M222,-398C232,-392 240,-385 246,-376 255,-362 256,-353 246,-340 240,-330 218,-322 196,-315"/>
<polygon style="fill:gray;stroke:gray;" points="196.584,-311.521 186,-312 194.573,-318.226 196.584,-311.521"/>
</g>
<!-- t10&#45;&gt;t11 -->
<g id="edge15" class="edge"><title>t10&#45;&gt;t11</title>
<path style="fill:none;stroke:gray;" d="M128,-340C128,-336 128,-332 129,-328"/>
<polygon style="fill:gray;stroke:gray;" points="132.5,-328 129,-318 125.5,-328 132.5,-328"/>
</g>
<!-- t12 -->
<g id="node17" class="node"><title>t12</title>
<polygon style="fill:#6cb924;stroke:black;" points="63.7679,-203.794 129,-176.5 194.232,-203.794 194.171,-247.956 63.8288,-247.956 63.7679,-203.794"/>
<polygon style="fill:none;stroke:black;" points="59.7642,-201.133 129,-172.164 198.236,-201.133 198.166,-251.956 59.8343,-251.956 59.7642,-201.133"/>
<text text-anchor="middle" x="129" y="-209.392" style="font-family:Times New Roman;font-size:20.0px;">htseq_merge</text>
</g>
<!-- t11&#45;&gt;t12 -->
<g id="edge17" class="edge"><title>t11&#45;&gt;t12</title>
<path style="fill:none;stroke:gray;" d="M129,-282C129,-276 129,-269 129,-262"/>
<polygon style="fill:gray;stroke:gray;" points="132.5,-262 129,-252 125.5,-262 132.5,-262"/>
</g>
<!-- t13 -->
<g id="node19" class="node"><title>t13</title>
<polygon style="fill:#6cb924;stroke:black;" points="140.088,-130.774 96,-145.92 51.9115,-130.774 51.9527,-106.266 140.047,-106.266 140.088,-130.774"/>
<polygon style="fill:none;stroke:black;" points="144.052,-133.637 96,-150.145 47.948,-133.637 48.0006,-102.266 143.999,-102.266 144.052,-133.637"/>
<text text-anchor="middle" x="96" y="-117.392" style="font-family:Times New Roman;font-size:20.0px;">deseq</text>
</g>
<!-- t12&#45;&gt;t13 -->
<g id="edge19" class="edge"><title>t12&#45;&gt;t13</title>
<path style="fill:none;stroke:gray;" d="M115,-178C112,-171 109,-164 107,-157"/>
<polygon style="fill:gray;stroke:gray;" points="110.226,-155.573 104,-147 103.521,-157.584 110.226,-155.573"/>
</g>
<!-- t14 -->
<g id="node21" class="node"><title>t14</title>
<polygon style="fill:#ece116;stroke:black;" points="172.841,-56.7737 129,-71.9203 85.1594,-56.7737 85.2003,-32.2661 172.8,-32.2661 172.841,-56.7737"/>
<polygon style="fill:none;stroke:black;" points="176.845,-59.6221 129,-76.1523 81.1546,-59.6221 81.207,-28.2661 176.793,-28.2661 176.845,-59.6221"/>
<text text-anchor="middle" x="129" y="-43.392" style="font-family:Times New Roman;font-size:20.0px;">edger</text>
</g>
<!-- t12&#45;&gt;t14 -->
<g id="edge27" class="edge"><title>t12&#45;&gt;t14</title>
<path style="fill:none;stroke:gray;" d="M145,-179C149,-169 151,-159 153,-150 158,-127 159,-120 153,-98 152,-92 150,-87 147,-81"/>
<polygon style="fill:gray;stroke:gray;" points="150.26,-79.7166 143,-72 143.863,-82.5596 150.26,-79.7166"/>
</g>
<!-- t13&#45;&gt;t14 -->
<g id="edge21" class="edge"><title>t13&#45;&gt;t14</title>
<path style="fill:none;stroke:gray;" d="M106,-102C109,-96 111,-89 114,-82"/>
<polygon style="fill:gray;stroke:gray;" points="117.203,-83.4414 119,-73 111.084,-80.0418 117.203,-83.4414"/>
</g>
<!-- k1_1 -->
<g id="node27" class="node"><title>k1_1</title>
<polygon style="fill:#6cb924;stroke:black;" points="816,-755.5 666,-755.5 662,-751.5 662,-704.5 812,-704.5 816,-708.5 816,-755.5"/>
<polyline style="fill:none;stroke:black;" points="812,-751.5 662,-751.5 "/>
<polyline style="fill:none;stroke:black;" points="812,-751.5 812,-704.5 "/>
<polyline style="fill:none;stroke:black;" points="812,-751.5 816,-755.5 "/>
<text text-anchor="middle" x="739" y="-723.392" style="font-family:Times New Roman;font-size:20.0px;">Up&#45;to&#45;date task</text>
</g>
<!-- k2_1 -->
<g id="node28" class="node"><title>k2_1</title>
<polygon style="fill:#ece116;stroke:black;" points="800,-681.5 682,-681.5 678,-677.5 678,-630.5 796,-630.5 800,-634.5 800,-681.5"/>
<polyline style="fill:none;stroke:black;" points="796,-677.5 678,-677.5 "/>
<polyline style="fill:none;stroke:black;" points="796,-677.5 796,-630.5 "/>
<polyline style="fill:none;stroke:black;" points="796,-677.5 800,-681.5 "/>
<text text-anchor="middle" x="739" y="-649.392" style="font-family:Times New Roman;font-size:20.0px;">Final target</text>
</g>
<!-- k1_1&#45;&gt;k2_1 -->
<g id="edge30" class="edge"><title>k1_1&#45;&gt;k2_1</title>
<path style="fill:none;stroke:gray;" d="M739,-704C739,-700 739,-696 739,-692"/>
<polygon style="fill:gray;stroke:gray;" points="742.5,-692 739,-682 735.5,-692 742.5,-692"/>
</g>
</g>
</svg>
