<?xml version="1.0" encoding="UTF-8" standalone="no"?>
<!DOCTYPE svg PUBLIC "-//W3C//DTD SVG 1.0//EN"
 "http://www.w3.org/TR/2001/REC-SVG-20010904/DTD/svg10.dtd" [
 <!ATTLIST svg xmlns:xlink CDATA #FIXED "http://www.w3.org/1999/xlink">
]>
<!-- Generated by Graphviz version 2.20.2 (Mon Aug &#160;4 08:59:22 UTC 2008)
     For user: (harryc) Harry Clifford -->
<!-- Title: Quality Control Pipeline by Harry Clifford Pages: 1 -->
<svg width="748pt" height="524pt"
 viewBox="0.00 0.00 748.00 524.00" xmlns="http://www.w3.org/2000/svg" xmlns:xlink="http://www.w3.org/1999/xlink">
<g id="graph0" class="graph" transform="scale(1 1) rotate(0) translate(4 520)">
<title>Quality Control Pipeline by Harry Clifford</title>
<polygon style="fill:white;stroke:white;" points="-4,4 -4,-520 744,-520 744,4 -4,4"/>
<g id="cluster2" class="cluster"><title>clustertasks</title>
<polygon style="fill:none;stroke:black;" points="8,-16 8,-500 554,-500 554,-16 8,-16"/>
<text text-anchor="middle" x="281" y="-468.892" style="font-family:Times New Roman;font-size:30.0px;fill:#ff3232;">Quality Control Pipeline by Harry Clifford</text>
</g>
<g id="cluster3" class="cluster"><title>clusterkey1</title>
<polygon style="fill:#f6f4f4;stroke:#f6f4f4;" points="562,-302 562,-508 732,-508 732,-302 562,-302"/>
<text text-anchor="middle" x="647" y="-476.892" style="font-family:Times New Roman;font-size:30.0px;">Key:</text>
</g>
<!-- t0 -->
<g id="node2" class="node"><title>t0</title>
<polygon style="fill:#6cb924;stroke:black;" points="407,-450 337,-450 333,-446 333,-414 403,-414 407,-418 407,-450"/>
<polyline style="fill:none;stroke:black;" points="403,-446 333,-446 "/>
<polyline style="fill:none;stroke:black;" points="403,-446 403,-414 "/>
<polyline style="fill:none;stroke:black;" points="403,-446 407,-450 "/>
<text text-anchor="middle" x="370" y="-425.392" style="font-family:Times New Roman;font-size:20.0px;">fastqc1</text>
</g>
<!-- t1 -->
<g id="node3" class="node"><title>t1</title>
<polygon style="fill:#6cb924;stroke:black;" points="390,-365 278,-365 274,-361 274,-329 386,-329 390,-333 390,-365"/>
<polyline style="fill:none;stroke:black;" points="386,-361 274,-361 "/>
<polyline style="fill:none;stroke:black;" points="386,-361 386,-329 "/>
<polyline style="fill:none;stroke:black;" points="386,-361 390,-365 "/>
<text text-anchor="middle" x="332" y="-340.392" style="font-family:Times New Roman;font-size:20.0px;">quality_trim</text>
</g>
<!-- t0&#45;&gt;t1 -->
<g id="edge3" class="edge"><title>t0&#45;&gt;t1</title>
<path style="fill:none;stroke:gray;" d="M362,-414C357,-403 350,-388 344,-374"/>
<polygon style="fill:gray;stroke:gray;" points="347.26,-372.717 340,-365 340.863,-375.56 347.26,-372.717"/>
</g>
<!-- t7 -->
<g id="node13" class="node"><title>t7</title>
<polygon style="fill:#ece116;stroke:black;" points="313.055,-56.7938 355,-29.5 396.945,-56.7938 396.906,-100.956 313.094,-100.956 313.055,-56.7938"/>
<polygon style="fill:none;stroke:black;" points="309.096,-54.6128 355,-24.7429 400.904,-54.6128 400.859,-104.956 309.141,-104.956 309.096,-54.6128"/>
<text text-anchor="middle" x="355" y="-62.392" style="font-family:Times New Roman;font-size:20.0px;fill:#efa03b;">results2</text>
</g>
<!-- t0&#45;&gt;t7 -->
<g id="edge23" class="edge"><title>t0&#45;&gt;t7</title>
<path style="fill:none;stroke:gray;" d="M384,-414C390,-405 396,-394 399,-384 415,-335 409,-320 409,-270 409,-270 409,-270 409,-212 409,-178 395,-141 382,-114"/>
<polygon style="fill:gray;stroke:gray;" points="384.916,-112.042 377,-105 378.797,-115.441 384.916,-112.042"/>
</g>
<!-- t3 -->
<g id="node5" class="node"><title>t3</title>
<polygon style="fill:#6cb924;stroke:black;" points="370,-288 176,-288 172,-284 172,-252 366,-252 370,-256 370,-288"/>
<polyline style="fill:none;stroke:black;" points="366,-284 172,-284 "/>
<polyline style="fill:none;stroke:black;" points="366,-284 366,-252 "/>
<polyline style="fill:none;stroke:black;" points="366,-284 370,-288 "/>
<text text-anchor="middle" x="271" y="-263.392" style="font-family:Times New Roman;font-size:20.0px;">contaminants_removal</text>
</g>
<!-- t1&#45;&gt;t3 -->
<g id="edge5" class="edge"><title>t1&#45;&gt;t3</title>
<path style="fill:none;stroke:gray;" d="M318,-329C310,-320 300,-307 292,-296"/>
<polygon style="fill:gray;stroke:gray;" points="294.8,-293.9 286,-288 289.2,-298.1 294.8,-293.9"/>
</g>
<!-- t1&#45;&gt;t7 -->
<g id="edge21" class="edge"><title>t1&#45;&gt;t7</title>
<path style="fill:none;stroke:gray;" d="M352,-329C362,-318 374,-303 379,-288 399,-230 385,-160 372,-115"/>
<polygon style="fill:gray;stroke:gray;" points="375.226,-113.573 369,-105 368.521,-115.584 375.226,-113.573"/>
</g>
<!-- t4 -->
<g id="node7" class="node"><title>t4</title>
<polygon style="fill:#6cb924;stroke:black;" points="341,-230 223,-230 219,-226 219,-194 337,-194 341,-198 341,-230"/>
<polyline style="fill:none;stroke:black;" points="337,-226 219,-226 "/>
<polyline style="fill:none;stroke:black;" points="337,-226 337,-194 "/>
<polyline style="fill:none;stroke:black;" points="337,-226 341,-230 "/>
<text text-anchor="middle" x="280" y="-205.392" style="font-family:Times New Roman;font-size:20.0px;">quality_filter</text>
</g>
<!-- t3&#45;&gt;t4 -->
<g id="edge7" class="edge"><title>t3&#45;&gt;t4</title>
<path style="fill:none;stroke:gray;" d="M274,-252C275,-248 275,-244 276,-240"/>
<polygon style="fill:gray;stroke:gray;" points="279.488,-240.299 277,-230 272.522,-239.602 279.488,-240.299"/>
</g>
<!-- t3&#45;&gt;t7 -->
<g id="edge19" class="edge"><title>t3&#45;&gt;t7</title>
<path style="fill:none;stroke:gray;" d="M326,-252C336,-246 344,-239 350,-230 372,-196 371,-150 366,-115"/>
<polygon style="fill:gray;stroke:gray;" points="369.393,-114.119 364,-105 362.529,-115.492 369.393,-114.119"/>
</g>
<!-- t6 -->
<g id="node9" class="node"><title>t6</title>
<polygon style="fill:#6cb924;stroke:black;" points="234,-172 160,-172 156,-168 156,-136 230,-136 234,-140 234,-172"/>
<polyline style="fill:none;stroke:black;" points="230,-168 156,-168 "/>
<polyline style="fill:none;stroke:black;" points="230,-168 230,-136 "/>
<polyline style="fill:none;stroke:black;" points="230,-168 234,-172 "/>
<text text-anchor="middle" x="195" y="-147.392" style="font-family:Times New Roman;font-size:20.0px;">results1</text>
</g>
<!-- t4&#45;&gt;t6 -->
<g id="edge9" class="edge"><title>t4&#45;&gt;t6</title>
<path style="fill:none;stroke:gray;" d="M254,-194C247,-189 238,-183 230,-178"/>
<polygon style="fill:gray;stroke:gray;" points="232.1,-175.2 222,-172 227.9,-180.8 232.1,-175.2"/>
</g>
<!-- t5 -->
<g id="node11" class="node"><title>t5</title>
<polygon style="fill:#6cb924;stroke:black;" points="326,-172 256,-172 252,-168 252,-136 322,-136 326,-140 326,-172"/>
<polyline style="fill:none;stroke:black;" points="322,-168 252,-168 "/>
<polyline style="fill:none;stroke:black;" points="322,-168 322,-136 "/>
<polyline style="fill:none;stroke:black;" points="322,-168 326,-172 "/>
<text text-anchor="middle" x="289" y="-147.392" style="font-family:Times New Roman;font-size:20.0px;">fastqc2</text>
</g>
<!-- t4&#45;&gt;t5 -->
<g id="edge11" class="edge"><title>t4&#45;&gt;t5</title>
<path style="fill:none;stroke:gray;" d="M283,-194C284,-190 284,-186 285,-182"/>
<polygon style="fill:gray;stroke:gray;" points="288.488,-182.299 286,-172 281.522,-181.602 288.488,-182.299"/>
</g>
<!-- t4&#45;&gt;t7 -->
<g id="edge17" class="edge"><title>t4&#45;&gt;t7</title>
<path style="fill:none;stroke:gray;" d="M313,-194C321,-188 330,-180 335,-172 346,-155 351,-134 354,-115"/>
<polygon style="fill:gray;stroke:gray;" points="357.488,-115.299 355,-105 350.522,-114.602 357.488,-115.299"/>
</g>
<!-- t6&#45;&gt;t7 -->
<g id="edge13" class="edge"><title>t6&#45;&gt;t7</title>
<path style="fill:none;stroke:gray;" d="M229,-136C249,-125 277,-111 300,-98"/>
<polygon style="fill:gray;stroke:gray;" points="301.958,-100.916 309,-93 298.559,-94.7969 301.958,-100.916"/>
</g>
<!-- t5&#45;&gt;t7 -->
<g id="edge15" class="edge"><title>t5&#45;&gt;t7</title>
<path style="fill:none;stroke:gray;" d="M303,-136C308,-129 314,-121 321,-113"/>
<polygon style="fill:gray;stroke:gray;" points="323.8,-115.1 327,-105 318.2,-110.9 323.8,-115.1"/>
</g>
<!-- k1_1 -->
<g id="node21" class="node"><title>k1_1</title>
<polygon style="fill:#6cb924;stroke:black;" points="724,-457.5 574,-457.5 570,-453.5 570,-406.5 720,-406.5 724,-410.5 724,-457.5"/>
<polyline style="fill:none;stroke:black;" points="720,-453.5 570,-453.5 "/>
<polyline style="fill:none;stroke:black;" points="720,-453.5 720,-406.5 "/>
<polyline style="fill:none;stroke:black;" points="720,-453.5 724,-457.5 "/>
<text text-anchor="middle" x="647" y="-425.392" style="font-family:Times New Roman;font-size:20.0px;">Up&#45;to&#45;date task</text>
</g>
<!-- k2_1 -->
<g id="node22" class="node"><title>k2_1</title>
<polygon style="fill:#ece116;stroke:black;" points="708,-384 590,-384 586,-380 586,-310 704,-310 708,-314 708,-384"/>
<polyline style="fill:none;stroke:black;" points="704,-380 586,-380 "/>
<polyline style="fill:none;stroke:black;" points="704,-380 704,-310 "/>
<polyline style="fill:none;stroke:black;" points="704,-380 708,-384 "/>
<text text-anchor="middle" x="647" y="-351.892" style="font-family:Times New Roman;font-size:20.0px;fill:#efa03b;">Up&#45;to&#45;date</text>
<text text-anchor="middle" x="647" y="-328.892" style="font-family:Times New Roman;font-size:20.0px;fill:#efa03b;">Final target</text>
</g>
<!-- k1_1&#45;&gt;k2_1 -->
<g id="edge26" class="edge"><title>k1_1&#45;&gt;k2_1</title>
<path style="fill:none;stroke:gray;" d="M647,-406C647,-402 647,-398 647,-394"/>
<polygon style="fill:gray;stroke:gray;" points="650.5,-394 647,-384 643.5,-394 650.5,-394"/>
</g>
</g>
</svg>
